<svg xmlns="http://www.w3.org/2000/svg" viewBox="0 0 20 20"><defs><style>.cls-1{fill:#c5c7d0;}</style></defs><title>Person_1</title><g id="Layer_2" data-name="Layer 2"><g id="Layer_3" data-name="Layer 3"><path id="Person" class="cls-1" d="M10,0a10.011,10.011,0,1,0,7.068,2.932A9.969,9.969,0,0,0,10,0Zm0,.952a9.038,9.038,0,0,1,6.512,15.312c-.025-.048-.051-.094-.079-.139s-.055-.091-.081-.137l-.064-.114c-.022-.038-.043-.075-.066-.112q-.128-.209-.264-.409t-.285-.386c-.017-.021-.034-.041-.051-.06l-.052-.06q-.133-.161-.274-.312t-.288-.293l-.085-.083-.086-.081q-.173-.157-.355-.3t-.372-.277c-.02-.014-.042-.027-.063-.04l-.063-.039q-.17-.112-.346-.213t-.358-.193l-.1-.051-.1-.05c-.131-.061-.264-.119-.4-.173s-.271-.1-.41-.149c.033-.019.064-.04.094-.061s.061-.043.093-.063l.081-.053.08-.054c.106-.075.21-.152.31-.234s.2-.168.288-.259l.017-.018.017-.019c.086-.087.167-.178.244-.273s.151-.192.222-.292l.056-.08.054-.081c.071-.109.138-.221.2-.335a3.87,3.87,0,0,0,.172-.353l0-.013,0-.013c.049-.117.092-.238.129-.36s.07-.247.1-.373c.008-.033.015-.066.022-.1s.013-.066.019-.1c.024-.133.045-.268.06-.4a3.877,3.877,0,0,0,.023-.414,4.558,4.558,0,0,0-9.116,0,3.875,3.875,0,0,0,.023.414c.015.136.035.271.06.4.006.034.013.067.019.1s.014.066.022.1c.029.126.062.251.1.373s.08.243.129.36l0,.013,0,.013a3.87,3.87,0,0,0,.172.353c.063.114.131.226.2.335l.054.081.056.08c.071.1.144.2.222.291s.158.185.244.272l.017.019.017.019c.092.091.188.177.288.259s.2.159.31.234l.08.054.081.053c.032.02.062.042.093.063s.062.042.094.061c-.139.045-.276.095-.411.149s-.267.112-.4.173l-.1.049-.1.051q-.183.092-.361.194t-.349.215l-.061.038c-.02.012-.041.025-.06.038q-.191.132-.373.279t-.356.3l-.084.078L5,14.24q-.15.145-.293.3t-.278.317c-.016.019-.032.037-.048.055s-.032.036-.048.056q-.149.188-.286.388t-.266.411c-.022.036-.043.073-.064.11l-.063.111c-.027.047-.054.093-.082.139s-.054.093-.079.141a9.1,9.1,0,0,1-1.875-2.888A9.047,9.047,0,0,1,10,.952Zm0,11.292a3.61,3.61,0,1,1,2.549-1.057A3.595,3.595,0,0,1,10,12.245ZM4.227,16.952q.039-.082.079-.163t.082-.159c.035-.066.071-.133.107-.2s.073-.131.111-.193.1-.148.145-.22.1-.142.152-.212l.125-.173c.042-.057.085-.114.129-.168s.113-.131.172-.194.119-.124.179-.185l.142-.148c.047-.049.1-.1.146-.143s.13-.112.2-.165.136-.1.2-.156l.156-.122c.052-.041.1-.08.159-.117.072-.048.147-.093.223-.135s.152-.084.228-.126c.056-.031.111-.063.166-.095s.111-.062.169-.09c.082-.039.166-.073.252-.1s.171-.063.257-.094c.057-.021.113-.044.169-.066s.113-.043.171-.061c.1-.029.2-.053.3-.074s.2-.041.3-.06c.051-.01.1-.023.151-.034s.1-.023.153-.031q.232-.033.469-.051T10,13.2q.242,0,.48.018t.469.051c.051.007.1.018.149.03s.1.024.148.034c.1.02.2.039.306.061s.2.046.3.075c.057.017.113.038.168.06s.11.044.166.065c.087.032.174.062.26.095s.171.067.254.106c.057.027.113.058.168.089s.11.064.165.094c.076.042.153.083.229.126s.151.087.224.136c.055.036.107.076.159.117l.156.122c.068.052.136.1.2.156s.134.107.2.165.1.094.146.143l.142.148c.06.061.12.123.178.185s.117.126.172.193.087.11.129.167l.125.172c.051.071.1.141.153.213s.1.145.146.221.074.125.109.189.069.129.1.194.057.108.085.163.055.111.081.167a9.071,9.071,0,0,1-2.705,1.555,8.982,8.982,0,0,1-6.136,0A9.07,9.07,0,0,1,4.227,16.952Z"/></g></g></svg>